HIERARCHY
ROOT Hips
{
  OFFSET -21.6994 31.6921 0
  CHANNELS 6 Xposition Yposition Zposition Zrotation Xrotation Yrotation
  JOINT Bip01_Pelvis
  {
    OFFSET 0 0 0
    CHANNELS 6 Xposition Yposition Zposition Zrotation Xrotation Yrotation
    JOINT BN_Tail_01
    {
      OFFSET -7.25226 -1.74978 0
      CHANNELS 6 Xposition Yposition Zposition Zrotation Xrotation Yrotation
      JOINT BN_Tail_02
      {
        OFFSET 15.788 0 0
        CHANNELS 6 Xposition Yposition Zposition Zrotation Xrotation Yrotation
        JOINT BN_Tail_03
        {
          OFFSET 16.0015 0 0
          CHANNELS 6 Xposition Yposition Zposition Zrotation Xrotation Yrotation
          JOINT BN_Tail_04
          {
            OFFSET 16.1689 0 0
            CHANNELS 6 Xposition Yposition Zposition Zrotation Xrotation Yrotation
            End Site
            {
              OFFSET 0 0 0
            }
          }
        }
      }
    }
    JOINT Bip01_Spine
    {
      OFFSET 6.38383 2.70859 0.585432
      CHANNELS 6 Xposition Yposition Zposition Zrotation Xrotation Yrotation
      JOINT BN_Mane_02
      {
        OFFSET 6.12662 8.45826 0
        CHANNELS 6 Xposition Yposition Zposition Zrotation Xrotation Yrotation
        End Site
        {
          OFFSET 0 0 0
        }
      }
      JOINT Bip01_R_Thigh
      {
        OFFSET -7.04074 -2.18223 -5.47025
        CHANNELS 6 Xposition Yposition Zposition Zrotation Xrotation Yrotation
        JOINT Bip01_R_Calf
        {
          OFFSET 13.6591 0 0
          CHANNELS 6 Xposition Yposition Zposition Zrotation Xrotation Yrotation
          JOINT Bip01_R_HorseLink
          {
            OFFSET 9.07516 0 0
            CHANNELS 6 Xposition Yposition Zposition Zrotation Xrotation Yrotation
            JOINT Bip01_R_Foot
            {
              OFFSET 8.13856 0 0
              CHANNELS 6 Xposition Yposition Zposition Zrotation Xrotation Yrotation
              JOINT Bip01_R_Toe0
              {
                OFFSET 3.79737 6.30086 0
                CHANNELS 6 Xposition Yposition Zposition Zrotation Xrotation Yrotation
                JOINT Bip01_R_Toe0Nub
                {
                  OFFSET 0.838764 0 0
                  CHANNELS 6 Xposition Yposition Zposition Zrotation Xrotation Yrotation
                  End Site
                  {
                    OFFSET 0 0 0
                  }
                }
              }
            }
          }
        }
      }
      JOINT Bip01_L_Thigh
      {
        OFFSET -6.18667 -2.14873 5.3508
        CHANNELS 6 Xposition Yposition Zposition Zrotation Xrotation Yrotation
        JOINT Bip01_L_Calf
        {
          OFFSET 13.6591 0 0
          CHANNELS 6 Xposition Yposition Zposition Zrotation Xrotation Yrotation
          JOINT Bip01_L_HorseLink
          {
            OFFSET 9.07515 0 0
            CHANNELS 6 Xposition Yposition Zposition Zrotation Xrotation Yrotation
            JOINT Bip01_L_Foot
            {
              OFFSET 8.13856 0 0
              CHANNELS 6 Xposition Yposition Zposition Zrotation Xrotation Yrotation
              JOINT Bip01_L_Toe0
              {
                OFFSET 3.79737 6.30086 0
                CHANNELS 6 Xposition Yposition Zposition Zrotation Xrotation Yrotation
                JOINT Bip01_L_Toe0Nub
                {
                  OFFSET 0.838764 0 0
                  CHANNELS 6 Xposition Yposition Zposition Zrotation Xrotation Yrotation
                  End Site
                  {
                    OFFSET 0 0 0
                  }
                }
              }
            }
          }
        }
      }
      JOINT Bip01_Spine1
      {
        OFFSET 12.1687 -0.0105438 0
        CHANNELS 6 Xposition Yposition Zposition Zrotation Xrotation Yrotation
        JOINT BN_Mane_R_01
        {
          OFFSET -0.157498 5.09008 -6.54008
          CHANNELS 6 Xposition Yposition Zposition Zrotation Xrotation Yrotation
          End Site
          {
            OFFSET 0 0 0
          }
        }
        JOINT BN_Mane_R_02
        {
          OFFSET -0.1575 5.09007 6.54
          CHANNELS 6 Xposition Yposition Zposition Zrotation Xrotation Yrotation
          End Site
          {
            OFFSET 0 0 0
          }
        }
        JOINT BN_Mane_01
        {
          OFFSET 8.29709 8.50414 0
          CHANNELS 6 Xposition Yposition Zposition Zrotation Xrotation Yrotation
          End Site
          {
            OFFSET 0 0 0
          }
        }
        JOINT Bip01_Spine2
        {
          OFFSET 13.2802 -0.0100708 1.51992e-005
          CHANNELS 6 Xposition Yposition Zposition Zrotation Xrotation Yrotation
          JOINT Bip01_Neck
          {
            OFFSET 12.4891 -6.66662 0
            CHANNELS 6 Xposition Yposition Zposition Zrotation Xrotation Yrotation
            JOINT Bip01_R_Clavicle
            {
              OFFSET -7.4542 -2.82621 -1.17874
              CHANNELS 6 Xposition Yposition Zposition Zrotation Xrotation Yrotation
              JOINT Bip01_R_UpperArm
              {
                OFFSET 13.2557 0 0
                CHANNELS 6 Xposition Yposition Zposition Zrotation Xrotation Yrotation
                JOINT Bip01_R_Forearm
                {
                  OFFSET 12.8897 0 0
                  CHANNELS 6 Xposition Yposition Zposition Zrotation Xrotation Yrotation
                  JOINT Bip01_R_Hand
                  {
                    OFFSET 11.2622 0 0
                    CHANNELS 6 Xposition Yposition Zposition Zrotation Xrotation Yrotation
                    JOINT Bip01_R_Finger0
                    {
                      OFFSET 3.98015 -0.208661 -0.0949803
                      CHANNELS 6 Xposition Yposition Zposition Zrotation Xrotation Yrotation
                      JOINT Bip01_R_Finger0Nub
                      {
                        OFFSET 6.57561 0 0
                        CHANNELS 6 Xposition Yposition Zposition Zrotation Xrotation Yrotation
                        End Site
                        {
                          OFFSET 0 0 0
                        }
                      }
                    }
                  }
                }
              }
            }
            JOINT Bip01_L_Clavicle
            {
              OFFSET -7.4541 -2.82679 1.17708
              CHANNELS 6 Xposition Yposition Zposition Zrotation Xrotation Yrotation
              JOINT Bip01_L_UpperArm
              {
                OFFSET 13.2558 0 0
                CHANNELS 6 Xposition Yposition Zposition Zrotation Xrotation Yrotation
                JOINT Bip01_L_Forearm
                {
                  OFFSET 12.8897 0 0
                  CHANNELS 6 Xposition Yposition Zposition Zrotation Xrotation Yrotation
                  JOINT Bip01_L_Hand
                  {
                    OFFSET 11.2622 0 0
                    CHANNELS 6 Xposition Yposition Zposition Zrotation Xrotation Yrotation
                    JOINT Bip01_L_Finger0
                    {
                      OFFSET 3.98014 -0.20866 0.0949764
                      CHANNELS 6 Xposition Yposition Zposition Zrotation Xrotation Yrotation
                      JOINT Bip01_L_Finger0Nub
                      {
                        OFFSET 6.57562 0 0
                        CHANNELS 6 Xposition Yposition Zposition Zrotation Xrotation Yrotation
                        End Site
                        {
                          OFFSET 0 0 0
                        }
                      }
                    }
                  }
                }
              }
            }
            JOINT Bip01_Neck1
            {
              OFFSET 4.19352 -0.00332451 0
              CHANNELS 6 Xposition Yposition Zposition Zrotation Xrotation Yrotation
              JOINT Bip01_Head
              {
                OFFSET 4.17604 0.298252 0
                CHANNELS 6 Xposition Yposition Zposition Zrotation Xrotation Yrotation
                JOINT BN_Eye_R_01
                {
                  OFFSET 6.53258 -3.90694 -2.55361
                  CHANNELS 6 Xposition Yposition Zposition Zrotation Xrotation Yrotation
                  End Site
                  {
                    OFFSET 0 0 0
                  }
                }
                JOINT BN_Eye_L_01
                {
                  OFFSET 6.5326 -3.90694 2.55371
                  CHANNELS 6 Xposition Yposition Zposition Zrotation Xrotation Yrotation
                  End Site
                  {
                    OFFSET 0 0 0
                  }
                }
                JOINT BN_Ear_R_01
                {
                  OFFSET 1.75934 -4.1584 -4.45634
                  CHANNELS 6 Xposition Yposition Zposition Zrotation Xrotation Yrotation
                  End Site
                  {
                    OFFSET 0 0 0
                  }
                }
                JOINT BN_Ear_L_01
                {
                  OFFSET 1.75933 -4.15841 4.45616
                  CHANNELS 6 Xposition Yposition Zposition Zrotation Xrotation Yrotation
                  End Site
                  {
                    OFFSET 0 0 0
                  }
                }
                JOINT BN_Beard_L_01
                {
                  OFFSET 11.2964 -1.06183 2.32054
                  CHANNELS 6 Xposition Yposition Zposition Zrotation Xrotation Yrotation
                  End Site
                  {
                    OFFSET 0 0 0
                  }
                }
                JOINT BN_Beard_R_01
                {
                  OFFSET 11.2964 -1.06182 -2.32036
                  CHANNELS 6 Xposition Yposition Zposition Zrotation Xrotation Yrotation
                  End Site
                  {
                    OFFSET 0 0 0
                  }
                }
                JOINT BN_Mouth_0
                {
                  OFFSET 1.3149 1.30001 0
                  CHANNELS 6 Xposition Yposition Zposition Zrotation Xrotation Yrotation
                  End Site
                  {
                    OFFSET 0 0 0
                  }
                }
                JOINT Bip01_HeadNub
                {
                  OFFSET 12.6869 0 0
                  CHANNELS 6 Xposition Yposition Zposition Zrotation Xrotation Yrotation
                  End Site
                  {
                    OFFSET 0 0 0
                  }
                }
              }
            }
          }
        }
      }
    }
  }
}
MOTION
Frames:	4
Frame Time:	0.0333333
-21.6994 27.9295 0 -180 -90 -90 0 1.13687e-013 0 -89.9974 1.65211 -89.998 -7.25225 -1.74978 -2.91038e-011 -29.1274 10.7084 175.776 15.788 3.8147e-006 -9.53674e-007 -41.2179 20.3668 12.9498 16.0015 -3.8147e-006 4.76837e-007 -42.0231 -3.58053 28.6145 16.1689 -7.6294e-006 0 -35.9966 -0.228459 30.8263 6.33246 2.89308 2.54004e-006 21.992 -2.06124e-012 -9.22341e-012 6.12662 8.45826 5.82077e-011 -88.9945 -0.0324707 -179.967 -6.95508 -0.311031 -5.42738 -90.5723 0.999452 173.787 13.6591 -3.8147e-006 -4.76837e-007 -41.5484 7.32904e-006 6.17834e-006 9.07515 1.90735e-006 4.76837e-007 35.8068 -0.00332804 0.0010661 8.13856 7.10543e-015 0.000563621 26.3825 3.07596 5.43333 3.79726 6.30092 0.000581741 89.9467 2.11194e-009 4.31356e-009 0.838763 -2.98023e-008 -1.77636e-015 8.90318e-008 -4.01744e-010 4.30736e-009 -6.95508 -0.311058 5.42738 -141.705 -2.31135 -176.828 13.6591 -2.86102e-006 8.88178e-016 -90.011 -1.08507e-007 9.65083e-006 9.07516 0 -8.88178e-016 61.8399 5.24458e-006 -9.02195e-006 8.13856 -3.55271e-015 -8.88178e-016 -3.11 -12.8571 -4.00196 3.79737 6.30085 -9.53674e-007 89.9995 6.72014e-005 -12.4979 0.838766 2.23517e-008 1.77636e-015 -179.96 9.91948e-005 -0.00010199 12.1681 -0.0104828 -2.91038e-011 -7.77667 -2.00048e-011 4.49608e-011 -0.157493 5.09007 -6.54009 -92.7406 -0.022027 -167.965 -0.157495 5.09006 6.54 87.255 -0.000390274 12.0139 8.2971 8.50413 -2.1684e-019 -91.651 -0.0220947 -179.979 13.2792 -0.00987244 -2.91038e-011 -14.6228 8.59282e-011 4.30655e-011 12.4882 -6.66644 2.91038e-011 -19.6204 1.71625e-010 1.50045e-010 -6.45361 -4.6782 -1.17794 -160.428 -52.226 111.902 13.2557 -7.10543e-015 0 135.848 80.8846 -165.125 12.8897 -1.90735e-006 0 -65.188 -7.07393e-006 -1.52588e-005 11.2622 0 -1.77636e-015 -94.1697 72.8762 125.921 3.98015 -0.208659 -0.0949765 2.06108 8.51483 -35.8328 6.57561 -4.76837e-007 0 -179.96 1.73434e-005 4.46076e-005 -6.45361 -4.67821 1.17789 -160.44 55.331 -93.644 13.2558 0 -9.53674e-007 69.3212 -12.879 93.6778 12.8897 -1.77636e-015 -9.53674e-007 -121.349 2.56335e-006 -9.22617e-007 11.2622 9.53673e-007 1.77636e-015 -29.8447 -84.2967 -50.9448 3.98015 -0.208658 0.0949745 14.2321 -11.4819 62.2536 6.57562 -9.53673e-007 2.22044e-016 -1.29331e-007 -1.66047e-008 1.26406e-008 4.19498 -0.00312805 2.91038e-011 20.5971 -1.93641e-010 -5.14485e-011 4.17604 0.298248 2.91038e-011 4.32702 2.72549e-011 -3.30099e-011 6.53259 -3.90694 -2.55361 133.025 18.1401 163.594 6.5326 -3.90695 2.55371 -46.976 18.1112 -16.4184 1.75934 -4.1584 -4.45634 24.7931 -39.7306 142.462 1.75933 -4.1584 4.45616 -155.196 -39.7317 -37.5282 11.2964 -1.06183 2.32054 151.28 -2.12726 -89.9983 11.2964 -1.06184 -2.32035 -28.7077 -2.13818 89.9962 1.31489 1.30001 -2.91038e-011 -142.031 -0.0374451 -179.987 12.6869 -1.90735e-006 -8.73115e-011 -5.3724e-008 -1.47575e-010 3.05068e-011 
-26.7026 21.9309 -3.02132e-007 164.705 -83.707 -132.44 -3.55271e-015 1.13021e-013 0 -92.0657 16.4378 -80.7728 -7.25225 -1.74978 -2.91043e-011 6.05201 6.94638 170.177 15.788 3.8147e-006 -9.53674e-007 -46.9046 12.3427 15.2175 16.0015 -3.8147e-006 4.76837e-007 -40.7184 -5.21335 27.7147 16.1689 -7.6294e-006 -5.04485e-013 -35.3981 0.121865 30.8153 5.29621 4.40986 0.959457 19.7471 -1.95517 -4.69237 6.12662 8.45826 1.56694e-009 -88.9945 -0.0324707 -179.967 -6.98139 -2.1408 -5.91263 -107.77 4.09858 166.487 13.6591 -3.8147e-006 -4.76837e-007 -90.0361 -2.90274e-007 9.92247e-006 9.07515 1.90735e-006 4.76837e-007 63.471 -0.00148342 0.00297367 8.13856 -1.00044e-011 0.000563621 -24.8711 -7.40228 14.5772 3.79726 6.30092 0.000581729 89.6604 -2.44314e-007 1.15731e-007 0.838763 -2.98023e-008 1.24345e-014 8.90318e-008 -4.01744e-010 4.30736e-009 -6.0938 -2.51181 4.89933 -130.12 6.33931 -165.161 13.6591 -2.86102e-006 1.06581e-014 -91.1732 -3.80995e-007 9.33232e-006 9.07516 7.10543e-015 0 72.8823 1.26459e-005 -5.98419e-006 8.13856 3.55271e-015 -1.77636e-015 -39.5121 -5.71546 -8.26316 3.79737 6.30085 -9.0695e-007 91.9618 -0.105028 -6.1877 0.838766 2.23517e-008 0 -179.96 9.91918e-005 -0.00010199 12.1681 -0.0104828 -3.09743e-011 7.54818 -0.281221 -0.517469 -0.157492 5.09007 -6.54009 -92.7406 -0.0220269 -167.965 -0.157494 5.09006 6.54 87.255 -0.000390157 12.0139 8.2971 8.50413 5.48682e-009 -91.651 -0.0220947 -179.979 13.2792 -0.00987244 -3.54725e-011 14.9474 -1.4789 2.48353 12.4882 -6.66644 -6.35591e-008 -10.6937 1.93529 -0.841206 -7.1144 -3.65858 -0.950258 -171.389 -59.7211 109.555 13.2557 0 1.42109e-014 61.0874 74.4914 -82.4183 12.8897 -1.90735e-006 1.45661e-013 -84.1704 -2.48581e-006 -1.9795e-005 11.2622 -3.55271e-015 0 26.7001 41.3598 2.33132 3.98015 -0.208659 -0.0949765 23.6731 -43.4715 -45.5876 6.57561 -4.76836e-007 0 -179.96 1.73525e-005 4.46125e-005 -7.0798 -3.57893 1.40397 -166.853 64.5177 -83.6421 13.2558 0 -9.53674e-007 113.606 -75.6877 135.486 12.8897 -1.52101e-014 -9.53674e-007 -56.3306 -1.64995e-006 -1.2194e-006 11.2622 9.53674e-007 0 22.5546 -41.8291 3.80612 3.98015 -0.208658 0.0949745 11.1415 35.452 64.9873 6.57562 -9.53674e-007 6.66133e-016 -1.29331e-007 -1.66047e-008 1.26406e-008 4.19498 -0.00312805 1.64073e-011 37.7178 -2.05336 2.56984 4.17604 0.298248 3.43027e-009 13.7983 11.7569 0.388332 6.53259 -3.90694 -2.55361 133.025 18.1401 163.594 6.5326 -3.90695 2.55371 -46.976 18.1112 -16.4184 1.75934 -4.1584 -4.45634 24.7931 -39.7306 142.462 1.75933 -4.1584 4.45616 -155.196 -39.7317 -37.5282 11.2964 -1.06183 2.32054 151.279 -2.12726 -89.9983 11.2964 -1.06184 -2.32035 -28.7077 -2.13818 89.9962 1.31489 1.30001 4.70535e-009 -157.368 -3.18097 -172.908 12.6869 -1.90735e-006 -8.73204e-011 -5.3724e-008 -1.47578e-010 3.05031e-011 
-30.4423 17.243 -5.30804e-007 -179.515 -74.5209 -134.688 0 1.14575e-013 0 -94.533 24.572 -74.9503 -7.25225 -1.74978 -2.91056e-011 39.3426 1.44744 164.81 15.788 3.8147e-006 -9.53674e-007 -51.8449 4.63312 17.5935 16.0015 -3.8147e-006 4.76837e-007 -37.5984 -6.98333 24.3487 16.1689 -7.62939e-006 -1.25766e-012 -33.3731 1.33528 30.8008 4.48796 5.12082 1.42866 16.0372 -1.93929 -6.9266 6.12662 8.45826 -5.20627e-008 -88.9945 -0.0324707 -179.967 -6.52777 -3.44728 -6.23491 -115.704 7.35526 162.618 13.6591 -3.8147e-006 -4.76837e-007 -122.999 -6.35125e-006 8.92212e-006 9.07515 1.90735e-006 4.76837e-007 83.1445 -0.000394886 0.00330128 8.13856 -2.09166e-011 0.000563621 -68.0034 -17.7957 5.25697 3.79726 6.30092 0.000581732 89.3797 -7.16063e-008 8.96329e-008 0.838763 -2.98023e-008 3.55271e-015 8.90318e-008 -4.01742e-010 4.30736e-009 -5.21911 -3.81504 4.53439 -121.215 13.4657 -157.76 13.6591 -2.86102e-006 -1.68754e-014 -93.0745 8.85827e-007 1.01862e-005 9.07516 -3.55271e-015 -7.10543e-015 85.8278 1.19174e-006 -8.54566e-006 8.13856 -1.77636e-015 5.32907e-015 -68.8811 1.05371 -6.3424 3.79737 6.30085 -1.03146e-006 93.8859 8.30937e-007 -3.98093e-006 0.838766 2.23517e-008 8.88178e-016 -179.96 9.91884e-005 -0.00010199 12.1681 -0.0104828 3.54907e-011 17.1579 -0.47615 -0.108541 -0.157492 5.09007 -6.54009 -92.7406 -0.0220269 -167.965 -0.157494 5.09006 6.54 87.255 -0.000388957 12.0139 8.2971 8.50413 -3.26186e-008 -91.651 -0.0220795 -179.979 13.2792 -0.00987244 8.75477e-012 33.0117 -1.26214 5.59565 12.4882 -6.66644 -1.33716e-007 -5.32395 2.46665 -1.24052 -7.43018 -2.98746 -0.889541 -177.996 -65.8346 108.323 13.2557 3.55271e-015 3.55271e-015 54.7014 62.3729 -65.3638 12.8897 -1.90735e-006 2.30926e-013 -96.3423 1.42372e-006 -2.20702e-005 11.2622 -1.06581e-014 0 33.3584 6.22625 -8.76227 3.98015 -0.208659 -0.0949765 54.1619 -72.8244 -23.5088 6.57562 -4.76836e-007 1.77636e-015 -179.96 1.73431e-005 4.46109e-005 -7.3792 -2.88602 1.46356 -170.616 70.5124 -75.9439 13.2558 3.55271e-015 -9.53674e-007 -128.077 -54.2684 -108.867 12.8897 -7.10543e-015 -9.53674e-007 -14.0554 -1.54379e-006 4.97679e-007 11.2622 9.53674e-007 1.33227e-015 23.8017 -9.25309 8.46108 3.98015 -0.208658 0.0949745 19.9482 58.3732 56.6245 6.57562 -9.53674e-007 2.84217e-014 -1.29331e-007 -1.66047e-008 1.26406e-008 4.19498 -0.00312805 -2.16325e-011 45.9302 -2.55644 5.00096 4.17604 0.298248 -5.86477e-009 24.1737 15.9166 -0.18399 6.53259 -3.90694 -2.55361 133.025 18.1401 163.594 6.53261 -3.90695 2.55371 -46.976 18.1112 -16.4184 1.75934 -4.1584 -4.45634 24.7931 -39.7306 142.462 1.75933 -4.1584 4.45616 -155.196 -39.7317 -37.5282 11.2964 -1.06183 2.32054 151.281 -2.12725 -89.9983 11.2964 -1.06184 -2.32035 -28.7077 -2.13818 89.9962 1.31489 1.30001 -7.6955e-008 -171.645 -6.15845 -165.892 12.6869 -1.90735e-006 -8.71675e-011 -5.3724e-008 -1.47578e-010 3.05047e-011 
-31.6487 15.2561 -6.11175e-007 -173.838 -56.0745 -127.031 -3.55271e-015 1.13687e-013 -1.77636e-015 -92.23 18.0517 -80.2019 -7.25225 -1.74978 -2.91074e-011 31.9225 -2.92946 168.604 15.788 3.8147e-006 -9.53674e-007 -32.7694 7.77882 15.0544 16.0015 -3.8147e-006 4.76837e-007 -23.7608 0.729071 16.4511 16.1689 -7.6294e-006 6.82121e-013 -29.2367 3.32709 30.6885 5.15905 4.55961 0.998154 7.80566 -0.230849 -1.68789 6.12662 8.45826 -7.70976e-008 -88.9944 -0.0324707 -179.967 -5.91785 -3.79049 -6.26932 -98.9692 5.13738 158.949 13.6591 -3.8147e-006 -4.76838e-007 -122.786 1.16173e-005 2.13259e-005 9.07515 1.90735e-006 4.76837e-007 85.337 -0.000267081 0.0033167 8.13856 -2.13731e-011 0.000563621 -95.2115 -18.2282 -5.9702 3.79726 6.30092 0.000581671 89.3791 2.10677e-006 6.43121e-007 0.838763 -2.98023e-008 3.55271e-015 8.90318e-008 -4.01741e-010 4.30736e-009 -5.59798 -3.83463 4.58063 -113.621 20.3675 -161.716 13.6591 -2.86102e-006 -9.23706e-014 -97.3329 3.0191e-006 1.15265e-005 9.07516 -3.55271e-015 3.55271e-015 107.289 -6.96764e-007 -5.31967e-006 8.13856 -1.33227e-015 -3.10862e-015 -88.9827 8.20962 -3.53964 3.79737 6.30085 -1.44061e-006 93.8859 9.20133e-006 4.73975e-006 0.838766 2.23518e-008 -1.33227e-015 -179.96 9.91922e-005 -0.000101989 12.1681 -0.0104828 6.65121e-011 13.6598 -0.448034 2.49472 -0.157493 5.09007 -6.54009 -92.7406 -0.0220269 -167.965 -0.157494 5.09006 6.54 87.255 -0.000390186 12.0139 8.2971 8.50413 -9.27597e-008 -91.651 -0.0220795 -179.979 13.2792 -0.00987244 7.85576e-011 24.3926 -0.670726 9.79905 12.4882 -6.66644 -2.54842e-007 -8.90822 -0.390309 0.32739 -7.20328 -3.38957 -1.24242 -170.086 -69.9765 113.022 13.2557 -3.55271e-015 1.42109e-014 49.5816 55.736 -59.1153 12.8897 -1.90735e-006 5.22249e-013 -93.9832 -3.30139e-007 -2.84639e-005 11.2622 0 -3.55271e-015 39.9793 23.7504 -17.9493 3.98015 -0.208659 -0.0949765 34.3531 -51.5503 -19.8425 6.57562 -4.76836e-007 -7.10543e-015 -179.96 1.73437e-005 4.46127e-005 -7.21683 -3.40572 1.11332 -172.174 69.0316 -68.518 13.2558 1.77636e-015 -9.53674e-007 -135.736 -64.5192 -124.308 12.8897 -6.21725e-015 -9.53674e-007 -23.044 -4.46703e-006 7.93177e-006 11.2622 9.53674e-007 -1.33227e-015 24.6568 -2.00373 12.9003 3.98015 -0.208658 0.0949745 44.2959 16.6911 36.4983 6.57562 -9.53674e-007 -1.06581e-014 -1.29331e-007 -1.66047e-008 1.26406e-008 4.19498 -0.00312805 -7.0246e-011 32.2963 -2.05832 6.39918 4.17604 0.298248 2.48347e-008 33.9104 14.8711 10.5475 6.53259 -3.90694 -2.55361 133.025 18.1402 163.594 6.53261 -3.90695 2.55371 -46.9761 18.1112 -16.4184 1.75934 -4.1584 -4.45634 24.7931 -39.7306 142.462 1.75933 -4.1584 4.45616 -155.196 -39.7317 -37.5282 11.2964 -1.06183 2.32054 151.28 -2.12725 -89.9983 11.2964 -1.06184 -2.32035 -28.7077 -2.13818 89.9962 1.31489 1.30001 -6.87028e-009 -168.021 -5.21189 -169.016 12.6869 -1.90735e-006 -8.73079e-011 -5.3724e-008 -1.47572e-010 3.05174e-011 
